<mxfile host="65bd71144e">
    <diagram id="bfpqCElBmMaLn6VJ8Khe" name="激光点云1">
        <mxGraphModel dx="2009" dy="1491" grid="1" gridSize="10" guides="1" tooltips="1" connect="1" arrows="1" fold="1" page="1" pageScale="1" pageWidth="850" pageHeight="1100" background="#ffffff" math="0" shadow="0">
            <root>
                <mxCell id="0"/>
                <mxCell id="1" parent="0"/>
                <mxCell id="2" value="点云数据预处理" style="rounded=0;whiteSpace=wrap;html=1;" parent="1" vertex="1">
                    <mxGeometry x="40" y="100" width="100" height="40" as="geometry"/>
                </mxCell>
                <mxCell id="3" value="点云数据处理" style="rounded=0;whiteSpace=wrap;html=1;" parent="1" vertex="1">
                    <mxGeometry x="40" y="230" width="100" height="40" as="geometry"/>
                </mxCell>
                <mxCell id="4" value="格式转换" style="rounded=0;whiteSpace=wrap;html=1;" parent="1" vertex="1">
                    <mxGeometry x="260" y="80" width="90" height="30" as="geometry"/>
                </mxCell>
                <mxCell id="5" value="轻量化" style="rounded=0;whiteSpace=wrap;html=1;" parent="1" vertex="1">
                    <mxGeometry x="370" y="80" width="90" height="30" as="geometry"/>
                </mxCell>
                <mxCell id="6" value="备用" style="rounded=0;whiteSpace=wrap;html=1;" parent="1" vertex="1">
                    <mxGeometry x="480" y="80" width="90" height="30" as="geometry"/>
                </mxCell>
                <mxCell id="7" value="噪点剔除" style="rounded=0;whiteSpace=wrap;html=1;" parent="1" vertex="1">
                    <mxGeometry x="260" y="130" width="90" height="30" as="geometry"/>
                </mxCell>
                <mxCell id="8" value="中值滤波" style="rounded=0;whiteSpace=wrap;html=1;" parent="1" vertex="1">
                    <mxGeometry x="370" y="130" width="90" height="30" as="geometry"/>
                </mxCell>
                <mxCell id="9" value="高度分割" style="rounded=0;whiteSpace=wrap;html=1;" parent="1" vertex="1">
                    <mxGeometry x="480" y="130" width="90" height="30" as="geometry"/>
                </mxCell>
                <mxCell id="11" value="滤地" style="rounded=0;whiteSpace=wrap;html=1;" parent="1" vertex="1">
                    <mxGeometry x="260" y="220" width="90" height="30" as="geometry"/>
                </mxCell>
                <mxCell id="12" value="聚类" style="rounded=0;whiteSpace=wrap;html=1;" parent="1" vertex="1">
                    <mxGeometry x="370" y="220" width="90" height="30" as="geometry"/>
                </mxCell>
                <mxCell id="13" value="输出" style="rounded=0;whiteSpace=wrap;html=1;" parent="1" vertex="1">
                    <mxGeometry x="480" y="220" width="90" height="30" as="geometry"/>
                </mxCell>
                <mxCell id="14" value="KD树搜索" style="rounded=0;whiteSpace=wrap;html=1;" parent="1" vertex="1">
                    <mxGeometry x="260" y="260" width="90" height="30" as="geometry"/>
                </mxCell>
                <mxCell id="15" value="中值滤波" style="rounded=0;whiteSpace=wrap;html=1;" parent="1" vertex="1">
                    <mxGeometry x="370" y="260" width="90" height="30" as="geometry"/>
                </mxCell>
                <mxCell id="16" value="高度分割" style="rounded=0;whiteSpace=wrap;html=1;" parent="1" vertex="1">
                    <mxGeometry x="480" y="260" width="90" height="30" as="geometry"/>
                </mxCell>
                <mxCell id="17" value="点云" style="rounded=0;whiteSpace=wrap;html=1;" parent="1" vertex="1">
                    <mxGeometry x="180" y="100" width="70" height="40" as="geometry"/>
                </mxCell>
                <mxCell id="18" value="备用点云" style="rounded=0;whiteSpace=wrap;html=1;" parent="1" vertex="1">
                    <mxGeometry x="180" y="230" width="70" height="40" as="geometry"/>
                </mxCell>
                <mxCell id="20" value="" style="shape=flexArrow;endArrow=classic;html=1;fillColor=#33FF33;" parent="1" edge="1">
                    <mxGeometry width="50" height="50" relative="1" as="geometry">
                        <mxPoint x="140" y="119.5" as="sourcePoint"/>
                        <mxPoint x="170" y="120" as="targetPoint"/>
                    </mxGeometry>
                </mxCell>
                <mxCell id="21" value="" style="shape=flexArrow;endArrow=classic;html=1;fillColor=#33FF33;" parent="1" edge="1">
                    <mxGeometry width="50" height="50" relative="1" as="geometry">
                        <mxPoint x="140" y="249" as="sourcePoint"/>
                        <mxPoint x="170" y="249" as="targetPoint"/>
                    </mxGeometry>
                </mxCell>
                <mxCell id="22" value="" style="endArrow=classic;html=1;fillColor=#60a917;strokeColor=#2D7600;" parent="1" edge="1">
                    <mxGeometry width="50" height="50" relative="1" as="geometry">
                        <mxPoint x="340" y="94.5" as="sourcePoint"/>
                        <mxPoint x="380" y="94.5" as="targetPoint"/>
                    </mxGeometry>
                </mxCell>
                <mxCell id="23" value="" style="endArrow=classic;html=1;fillColor=#60a917;strokeColor=#2D7600;" parent="1" edge="1">
                    <mxGeometry width="50" height="50" relative="1" as="geometry">
                        <mxPoint x="450" y="94.5" as="sourcePoint"/>
                        <mxPoint x="490" y="94.5" as="targetPoint"/>
                    </mxGeometry>
                </mxCell>
                <mxCell id="24" value="" style="endArrow=classic;html=1;fillColor=#60a917;strokeColor=#2D7600;" parent="1" edge="1">
                    <mxGeometry width="50" height="50" relative="1" as="geometry">
                        <mxPoint x="340" y="234.5" as="sourcePoint"/>
                        <mxPoint x="380" y="234.5" as="targetPoint"/>
                    </mxGeometry>
                </mxCell>
                <mxCell id="25" value="" style="endArrow=classic;html=1;fillColor=#60a917;strokeColor=#2D7600;" parent="1" edge="1">
                    <mxGeometry width="50" height="50" relative="1" as="geometry">
                        <mxPoint x="450" y="234.5" as="sourcePoint"/>
                        <mxPoint x="490" y="234.5" as="targetPoint"/>
                    </mxGeometry>
                </mxCell>
                <mxCell id="26" value="" style="rounded=1;whiteSpace=wrap;html=1;strokeColor=#FF0000;strokeWidth=3;fillColor=none;" parent="1" vertex="1">
                    <mxGeometry x="170" y="70" width="410" height="100" as="geometry"/>
                </mxCell>
                <mxCell id="27" value="" style="rounded=1;whiteSpace=wrap;html=1;strokeColor=#FF0000;strokeWidth=3;fillColor=none;" parent="1" vertex="1">
                    <mxGeometry x="170" y="210" width="410" height="100" as="geometry"/>
                </mxCell>
                <mxCell id="28" value="ROI" style="rounded=0;whiteSpace=wrap;html=1;strokeColor=#FF0000;strokeWidth=3;fillColor=none;fontColor=#000000;" parent="1" vertex="1">
                    <mxGeometry x="622" y="100" width="72" height="30" as="geometry"/>
                </mxCell>
                <mxCell id="30" value="障碍物信息" style="rounded=0;whiteSpace=wrap;html=1;strokeColor=#FF0000;strokeWidth=3;fillColor=none;fontColor=#000000;" parent="1" vertex="1">
                    <mxGeometry x="624" y="235" width="72" height="30" as="geometry"/>
                </mxCell>
                <mxCell id="31" value="" style="shape=flexArrow;endArrow=classic;html=1;fillColor=#33FF33;entryX=0;entryY=0.5;entryDx=0;entryDy=0;" parent="1" target="28" edge="1">
                    <mxGeometry width="50" height="50" relative="1" as="geometry">
                        <mxPoint x="578" y="114.5" as="sourcePoint"/>
                        <mxPoint x="618" y="115" as="targetPoint"/>
                    </mxGeometry>
                </mxCell>
                <mxCell id="32" value="" style="shape=flexArrow;endArrow=classic;html=1;fillColor=#33FF33;width=11;endSize=3.7;" parent="1" edge="1">
                    <mxGeometry width="50" height="50" relative="1" as="geometry">
                        <mxPoint x="582" y="249" as="sourcePoint"/>
                        <mxPoint x="620" y="250" as="targetPoint"/>
                    </mxGeometry>
                </mxCell>
                <mxCell id="33" value="" style="shape=flexArrow;endArrow=classic;html=1;fillColor=#33FF33;width=11;endSize=3.7;entryX=0.5;entryY=0;entryDx=0;entryDy=0;" parent="1" target="34" edge="1">
                    <mxGeometry width="50" height="50" relative="1" as="geometry">
                        <mxPoint x="664" y="270" as="sourcePoint"/>
                        <mxPoint x="663.5" y="353" as="targetPoint"/>
                        <Array as="points">
                            <mxPoint x="664" y="300"/>
                        </Array>
                    </mxGeometry>
                </mxCell>
                <mxCell id="34" value="输&amp;nbsp; &amp;nbsp; 出" style="ellipse;whiteSpace=wrap;html=1;fontColor=#FF0000;strokeColor=#0000FF;strokeWidth=3;fillColor=none;fontSize=18;fontStyle=1" parent="1" vertex="1">
                    <mxGeometry x="604" y="350" width="120" height="60" as="geometry"/>
                </mxCell>
                <mxCell id="35" value="Detection点云处理一般流程" style="text;html=1;strokeColor=none;fillColor=none;align=left;verticalAlign=middle;whiteSpace=wrap;rounded=0;fontSize=22;fontColor=#FF0000;" parent="1" vertex="1">
                    <mxGeometry x="20" y="10" width="300" height="30" as="geometry"/>
                </mxCell>
                <mxCell id="QXKNRnNFGfwan4PxlKeE-35" value="PCL点云库" style="text;html=1;strokeColor=none;fillColor=none;align=center;verticalAlign=middle;whiteSpace=wrap;rounded=0;fontSize=17;fontColor=#FF0000;" vertex="1" parent="1">
                    <mxGeometry x="30" y="410" width="110" height="30" as="geometry"/>
                </mxCell>
                <mxCell id="QXKNRnNFGfwan4PxlKeE-36" value="工作步骤" style="swimlane;fontSize=17;fontColor=#FF0000;strokeColor=#0000FF;strokeWidth=3;fillColor=none;" vertex="1" parent="1">
                    <mxGeometry x="30" y="480" width="180" height="130" as="geometry"/>
                </mxCell>
                <mxCell id="QXKNRnNFGfwan4PxlKeE-37" value="* 激光雷达发射激光&lt;br style=&quot;font-size: 13px&quot;&gt;* 障碍物反射激光&lt;br style=&quot;font-size: 13px&quot;&gt;* 激光雷达接收反射&lt;br style=&quot;font-size: 13px&quot;&gt;* 生成三维点云数据(XYZ,&lt;br&gt;RGB,Time,Intensity,Velocity)" style="text;html=1;align=left;verticalAlign=middle;resizable=0;points=[];autosize=1;strokeColor=none;fillColor=none;fontSize=13;fontColor=#FF0000;" vertex="1" parent="QXKNRnNFGfwan4PxlKeE-36">
                    <mxGeometry x="7.5" y="30" width="180" height="90" as="geometry"/>
                </mxCell>
                <mxCell id="QXKNRnNFGfwan4PxlKeE-38" value="主要工具" style="swimlane;fontSize=13;fontColor=#FF0000;strokeColor=#0000FF;strokeWidth=3;fillColor=none;" vertex="1" parent="1">
                    <mxGeometry x="280" y="480" width="130" height="110" as="geometry">
                        <mxRectangle x="450" y="180" width="80" height="23" as="alternateBounds"/>
                    </mxGeometry>
                </mxCell>
                <mxCell id="QXKNRnNFGfwan4PxlKeE-39" value="ROS&lt;br&gt;&lt;br&gt;PCL" style="text;html=1;align=center;verticalAlign=middle;resizable=0;points=[];autosize=1;strokeColor=none;fillColor=none;fontSize=13;fontColor=#FF0000;" vertex="1" parent="QXKNRnNFGfwan4PxlKeE-38">
                    <mxGeometry x="20" y="40" width="40" height="50" as="geometry"/>
                </mxCell>
            </root>
        </mxGraphModel>
    </diagram>
    <diagram id="LAleELwB6yS5hQ3d_kyp" name="激光点云2">
        <mxGraphModel dx="1758" dy="1305" grid="1" gridSize="10" guides="1" tooltips="1" connect="1" arrows="1" fold="1" page="1" pageScale="1" pageWidth="850" pageHeight="1100" background="#ffffff" math="0" shadow="0">
            <root>
                <mxCell id="iwYp3wEYwxm7NngFVobn-0"/>
                <mxCell id="iwYp3wEYwxm7NngFVobn-1" parent="iwYp3wEYwxm7NngFVobn-0"/>
                <mxCell id="iwYp3wEYwxm7NngFVobn-2" value="分割算法" style="rounded=1;whiteSpace=wrap;html=1;fontSize=17;fontColor=#FF0000;strokeColor=#0000FF;strokeWidth=3;fillColor=none;" parent="iwYp3wEYwxm7NngFVobn-1" vertex="1">
                    <mxGeometry x="40" y="360" width="100" height="40" as="geometry"/>
                </mxCell>
                <mxCell id="iwYp3wEYwxm7NngFVobn-6" value="基于法向量算法" style="rounded=1;whiteSpace=wrap;html=1;fontSize=12;fontColor=#FF0000;strokeColor=#0000FF;strokeWidth=3;fillColor=none;" parent="iwYp3wEYwxm7NngFVobn-1" vertex="1">
                    <mxGeometry x="200" y="162" width="130" height="30" as="geometry"/>
                </mxCell>
                <mxCell id="iwYp3wEYwxm7NngFVobn-20" value="" style="edgeStyle=entityRelationEdgeStyle;fontSize=12;html=1;endArrow=ERmandOne;fontColor=#FF0000;strokeColor=#0000FF;fillColor=#33FF33;exitX=1;exitY=0.5;exitDx=0;exitDy=0;entryX=0;entryY=0.5;entryDx=0;entryDy=0;" parent="iwYp3wEYwxm7NngFVobn-1" source="iwYp3wEYwxm7NngFVobn-2" target="iwYp3wEYwxm7NngFVobn-6" edge="1">
                    <mxGeometry width="100" height="100" relative="1" as="geometry">
                        <mxPoint x="150" y="390" as="sourcePoint"/>
                        <mxPoint x="250" y="290" as="targetPoint"/>
                    </mxGeometry>
                </mxCell>
                <mxCell id="iwYp3wEYwxm7NngFVobn-21" value="基于区域增长算法" style="rounded=1;whiteSpace=wrap;html=1;fontSize=12;fontColor=#FF0000;strokeColor=#0000FF;strokeWidth=3;fillColor=none;" parent="iwYp3wEYwxm7NngFVobn-1" vertex="1">
                    <mxGeometry x="200" y="213" width="130" height="30" as="geometry"/>
                </mxCell>
                <mxCell id="iwYp3wEYwxm7NngFVobn-22" value="" style="edgeStyle=entityRelationEdgeStyle;fontSize=12;html=1;endArrow=ERmandOne;fontColor=#FF0000;strokeColor=#0000FF;fillColor=#33FF33;entryX=0;entryY=0.5;entryDx=0;entryDy=0;" parent="iwYp3wEYwxm7NngFVobn-1" target="iwYp3wEYwxm7NngFVobn-21" edge="1">
                    <mxGeometry width="100" height="100" relative="1" as="geometry">
                        <mxPoint x="140" y="380" as="sourcePoint"/>
                        <mxPoint x="290" y="320" as="targetPoint"/>
                    </mxGeometry>
                </mxCell>
                <mxCell id="iwYp3wEYwxm7NngFVobn-23" value="基于直线拟合算法" style="rounded=1;whiteSpace=wrap;html=1;fontSize=12;fontColor=#FF0000;strokeColor=#0000FF;strokeWidth=3;fillColor=none;" parent="iwYp3wEYwxm7NngFVobn-1" vertex="1">
                    <mxGeometry x="200" y="266" width="130" height="30" as="geometry"/>
                </mxCell>
                <mxCell id="iwYp3wEYwxm7NngFVobn-24" value="" style="edgeStyle=entityRelationEdgeStyle;fontSize=12;html=1;endArrow=ERmandOne;fontColor=#FF0000;strokeColor=#0000FF;fillColor=#33FF33;exitX=1;exitY=0.5;exitDx=0;exitDy=0;entryX=0;entryY=0.5;entryDx=0;entryDy=0;" parent="iwYp3wEYwxm7NngFVobn-1" source="iwYp3wEYwxm7NngFVobn-2" target="iwYp3wEYwxm7NngFVobn-23" edge="1">
                    <mxGeometry width="100" height="100" relative="1" as="geometry">
                        <mxPoint x="150" y="401" as="sourcePoint"/>
                        <mxPoint x="210" y="360" as="targetPoint"/>
                    </mxGeometry>
                </mxCell>
                <mxCell id="iwYp3wEYwxm7NngFVobn-25" value="基于MRF算法" style="rounded=1;whiteSpace=wrap;html=1;fontSize=12;fontColor=#FF0000;strokeColor=#0000FF;strokeWidth=3;fillColor=none;" parent="iwYp3wEYwxm7NngFVobn-1" vertex="1">
                    <mxGeometry x="200" y="320" width="130" height="30" as="geometry"/>
                </mxCell>
                <mxCell id="iwYp3wEYwxm7NngFVobn-26" value="基于拟合平面算法" style="rounded=1;whiteSpace=wrap;html=1;fontSize=12;fontColor=#FF0000;strokeColor=#0000FF;strokeWidth=3;fillColor=none;" parent="iwYp3wEYwxm7NngFVobn-1" vertex="1">
                    <mxGeometry x="200" y="370" width="130" height="30" as="geometry"/>
                </mxCell>
                <mxCell id="iwYp3wEYwxm7NngFVobn-27" value="基于深度图像法" style="rounded=1;whiteSpace=wrap;html=1;fontSize=12;fontColor=#FF0000;strokeColor=#0000FF;strokeWidth=3;fillColor=none;" parent="iwYp3wEYwxm7NngFVobn-1" vertex="1">
                    <mxGeometry x="200" y="420" width="130" height="30" as="geometry"/>
                </mxCell>
                <mxCell id="iwYp3wEYwxm7NngFVobn-28" value="基于分段扇形投影法" style="rounded=1;whiteSpace=wrap;html=1;fontSize=12;fontColor=#FF0000;strokeColor=#0000FF;strokeWidth=3;fillColor=none;" parent="iwYp3wEYwxm7NngFVobn-1" vertex="1">
                    <mxGeometry x="200" y="470" width="140" height="30" as="geometry"/>
                </mxCell>
                <mxCell id="iwYp3wEYwxm7NngFVobn-29" value="基于平均高度算法" style="rounded=1;whiteSpace=wrap;html=1;fontSize=12;fontColor=#FF0000;strokeColor=#0000FF;strokeWidth=3;fillColor=none;" parent="iwYp3wEYwxm7NngFVobn-1" vertex="1">
                    <mxGeometry x="200" y="520" width="130" height="30" as="geometry"/>
                </mxCell>
                <mxCell id="iwYp3wEYwxm7NngFVobn-30" value="基于划分原理" style="rounded=1;whiteSpace=wrap;html=1;fontSize=12;fontColor=#FF0000;strokeColor=#0000FF;strokeWidth=3;fillColor=none;" parent="iwYp3wEYwxm7NngFVobn-1" vertex="1">
                    <mxGeometry x="527" y="150" width="110" height="30" as="geometry"/>
                </mxCell>
                <mxCell id="A237o_bNto-YE-V8PmqF-0" value="" style="edgeStyle=entityRelationEdgeStyle;fontSize=12;html=1;endArrow=ERmandOne;fontColor=#FF0000;strokeColor=#0000FF;fillColor=#33FF33;exitX=1;exitY=0.5;exitDx=0;exitDy=0;entryX=0;entryY=0.5;entryDx=0;entryDy=0;" parent="iwYp3wEYwxm7NngFVobn-1" source="iwYp3wEYwxm7NngFVobn-2" target="iwYp3wEYwxm7NngFVobn-25" edge="1">
                    <mxGeometry width="100" height="100" relative="1" as="geometry">
                        <mxPoint x="150" y="459" as="sourcePoint"/>
                        <mxPoint x="210" y="360" as="targetPoint"/>
                    </mxGeometry>
                </mxCell>
                <mxCell id="A237o_bNto-YE-V8PmqF-1" value="" style="edgeStyle=entityRelationEdgeStyle;fontSize=12;html=1;endArrow=ERmandOne;fontColor=#FF0000;strokeColor=#0000FF;fillColor=#33FF33;exitX=1;exitY=0.5;exitDx=0;exitDy=0;entryX=0;entryY=0.5;entryDx=0;entryDy=0;" parent="iwYp3wEYwxm7NngFVobn-1" source="iwYp3wEYwxm7NngFVobn-2" target="iwYp3wEYwxm7NngFVobn-29" edge="1">
                    <mxGeometry width="100" height="100" relative="1" as="geometry">
                        <mxPoint x="140" y="609" as="sourcePoint"/>
                        <mxPoint x="200" y="510" as="targetPoint"/>
                    </mxGeometry>
                </mxCell>
                <mxCell id="A237o_bNto-YE-V8PmqF-2" value="" style="edgeStyle=entityRelationEdgeStyle;fontSize=12;html=1;endArrow=ERmandOne;fontColor=#FF0000;strokeColor=#0000FF;fillColor=#33FF33;exitX=1;exitY=0.5;exitDx=0;exitDy=0;entryX=0;entryY=0.5;entryDx=0;entryDy=0;" parent="iwYp3wEYwxm7NngFVobn-1" source="A237o_bNto-YE-V8PmqF-6" target="A237o_bNto-YE-V8PmqF-15" edge="1">
                    <mxGeometry width="100" height="100" relative="1" as="geometry">
                        <mxPoint x="457" y="534.5" as="sourcePoint"/>
                        <mxPoint x="517" y="435.5" as="targetPoint"/>
                    </mxGeometry>
                </mxCell>
                <mxCell id="A237o_bNto-YE-V8PmqF-3" value="" style="edgeStyle=entityRelationEdgeStyle;fontSize=12;html=1;endArrow=ERmandOne;fontColor=#FF0000;strokeColor=#0000FF;fillColor=#33FF33;exitX=1;exitY=0.5;exitDx=0;exitDy=0;" parent="iwYp3wEYwxm7NngFVobn-1" source="iwYp3wEYwxm7NngFVobn-2" edge="1">
                    <mxGeometry width="100" height="100" relative="1" as="geometry">
                        <mxPoint x="140" y="380" as="sourcePoint"/>
                        <mxPoint x="200" y="385" as="targetPoint"/>
                    </mxGeometry>
                </mxCell>
                <mxCell id="A237o_bNto-YE-V8PmqF-4" value="" style="edgeStyle=entityRelationEdgeStyle;fontSize=12;html=1;endArrow=ERmandOne;fontColor=#FF0000;strokeColor=#0000FF;fillColor=#33FF33;exitX=1;exitY=0.5;exitDx=0;exitDy=0;entryX=0;entryY=0.5;entryDx=0;entryDy=0;" parent="iwYp3wEYwxm7NngFVobn-1" source="iwYp3wEYwxm7NngFVobn-2" target="iwYp3wEYwxm7NngFVobn-28" edge="1">
                    <mxGeometry width="100" height="100" relative="1" as="geometry">
                        <mxPoint x="140" y="559" as="sourcePoint"/>
                        <mxPoint x="200" y="460" as="targetPoint"/>
                    </mxGeometry>
                </mxCell>
                <mxCell id="A237o_bNto-YE-V8PmqF-5" value="" style="edgeStyle=entityRelationEdgeStyle;fontSize=12;html=1;endArrow=ERmandOne;fontColor=#FF0000;strokeColor=#0000FF;fillColor=#33FF33;entryX=0;entryY=0.5;entryDx=0;entryDy=0;" parent="iwYp3wEYwxm7NngFVobn-1" target="iwYp3wEYwxm7NngFVobn-27" edge="1">
                    <mxGeometry width="100" height="100" relative="1" as="geometry">
                        <mxPoint x="140" y="380" as="sourcePoint"/>
                        <mxPoint x="200" y="410" as="targetPoint"/>
                    </mxGeometry>
                </mxCell>
                <mxCell id="A237o_bNto-YE-V8PmqF-6" value="聚类算法" style="rounded=1;whiteSpace=wrap;html=1;fontSize=17;fontColor=#FF0000;strokeColor=#0000FF;strokeWidth=3;fillColor=none;" parent="iwYp3wEYwxm7NngFVobn-1" vertex="1">
                    <mxGeometry x="367" y="357" width="100" height="40" as="geometry"/>
                </mxCell>
                <mxCell id="A237o_bNto-YE-V8PmqF-7" value="基于层次原理" style="rounded=1;whiteSpace=wrap;html=1;fontSize=12;fontColor=#FF0000;strokeColor=#0000FF;strokeWidth=3;fillColor=none;" parent="iwYp3wEYwxm7NngFVobn-1" vertex="1">
                    <mxGeometry x="527" y="290" width="110" height="30" as="geometry"/>
                </mxCell>
                <mxCell id="A237o_bNto-YE-V8PmqF-10" value="边界框拟合" style="rounded=1;whiteSpace=wrap;html=1;fontSize=17;fontColor=#FF0000;strokeColor=#0000FF;strokeWidth=3;fillColor=none;" parent="iwYp3wEYwxm7NngFVobn-1" vertex="1">
                    <mxGeometry x="30" y="785" width="120" height="30" as="geometry"/>
                </mxCell>
                <mxCell id="A237o_bNto-YE-V8PmqF-11" value="" style="edgeStyle=entityRelationEdgeStyle;fontSize=12;html=1;endArrow=ERmandOne;fontColor=#FF0000;strokeColor=#0000FF;fillColor=#33FF33;exitX=1;exitY=0.5;exitDx=0;exitDy=0;entryX=0;entryY=0.5;entryDx=0;entryDy=0;" parent="iwYp3wEYwxm7NngFVobn-1" source="A237o_bNto-YE-V8PmqF-6" target="A237o_bNto-YE-V8PmqF-7" edge="1">
                    <mxGeometry width="100" height="100" relative="1" as="geometry">
                        <mxPoint x="457" y="491.5" as="sourcePoint"/>
                        <mxPoint x="517" y="392.5" as="targetPoint"/>
                    </mxGeometry>
                </mxCell>
                <mxCell id="A237o_bNto-YE-V8PmqF-12" value="" style="edgeStyle=entityRelationEdgeStyle;fontSize=12;html=1;endArrow=ERmandOne;fontColor=#FF0000;strokeColor=#0000FF;fillColor=#33FF33;exitX=1;exitY=0.5;exitDx=0;exitDy=0;entryX=0;entryY=0.5;entryDx=0;entryDy=0;" parent="iwYp3wEYwxm7NngFVobn-1" source="A237o_bNto-YE-V8PmqF-6" target="iwYp3wEYwxm7NngFVobn-30" edge="1">
                    <mxGeometry width="100" height="100" relative="1" as="geometry">
                        <mxPoint x="457" y="268" as="sourcePoint"/>
                        <mxPoint x="517" y="169" as="targetPoint"/>
                    </mxGeometry>
                </mxCell>
                <mxCell id="A237o_bNto-YE-V8PmqF-14" value="基于网格原理" style="rounded=1;whiteSpace=wrap;html=1;fontSize=12;fontColor=#FF0000;strokeColor=#0000FF;strokeWidth=3;fillColor=none;" parent="iwYp3wEYwxm7NngFVobn-1" vertex="1">
                    <mxGeometry x="527" y="570" width="110" height="30" as="geometry"/>
                </mxCell>
                <mxCell id="A237o_bNto-YE-V8PmqF-15" value="基于密度原理" style="rounded=1;whiteSpace=wrap;html=1;fontSize=12;fontColor=#FF0000;strokeColor=#0000FF;strokeWidth=3;fillColor=none;" parent="iwYp3wEYwxm7NngFVobn-1" vertex="1">
                    <mxGeometry x="527" y="427" width="110" height="30" as="geometry"/>
                </mxCell>
                <mxCell id="A237o_bNto-YE-V8PmqF-16" value="K-MEANS算法" style="rounded=1;whiteSpace=wrap;html=1;fontSize=11;fontColor=#FF0000;strokeColor=#0000FF;strokeWidth=3;fillColor=none;align=center;" parent="iwYp3wEYwxm7NngFVobn-1" vertex="1">
                    <mxGeometry x="697" y="110" width="130" height="30" as="geometry"/>
                </mxCell>
                <mxCell id="A237o_bNto-YE-V8PmqF-17" value="KNN算法" style="rounded=1;whiteSpace=wrap;html=1;fontSize=11;fontColor=#FF0000;strokeColor=#0000FF;strokeWidth=3;fillColor=none;align=center;" parent="iwYp3wEYwxm7NngFVobn-1" vertex="1">
                    <mxGeometry x="697" y="150" width="130" height="30" as="geometry"/>
                </mxCell>
                <mxCell id="A237o_bNto-YE-V8PmqF-18" value="K-MEDOIDS算法" style="rounded=1;whiteSpace=wrap;html=1;fontSize=11;fontColor=#FF0000;strokeColor=#0000FF;strokeWidth=3;fillColor=none;align=center;" parent="iwYp3wEYwxm7NngFVobn-1" vertex="1">
                    <mxGeometry x="697" y="193" width="130" height="30" as="geometry"/>
                </mxCell>
                <mxCell id="A237o_bNto-YE-V8PmqF-19" value="K-MEANS算法" style="rounded=1;whiteSpace=wrap;html=1;fontSize=11;fontColor=#FF0000;strokeColor=#0000FF;strokeWidth=3;fillColor=none;align=center;" parent="iwYp3wEYwxm7NngFVobn-1" vertex="1">
                    <mxGeometry x="697" y="246" width="130" height="30" as="geometry"/>
                </mxCell>
                <mxCell id="A237o_bNto-YE-V8PmqF-20" value="KNN算法" style="rounded=1;whiteSpace=wrap;html=1;fontSize=11;fontColor=#FF0000;strokeColor=#0000FF;strokeWidth=3;fillColor=none;align=center;" parent="iwYp3wEYwxm7NngFVobn-1" vertex="1">
                    <mxGeometry x="697" y="286" width="130" height="30" as="geometry"/>
                </mxCell>
                <mxCell id="A237o_bNto-YE-V8PmqF-21" value="K-MEDOIDS算法" style="rounded=1;whiteSpace=wrap;html=1;fontSize=11;fontColor=#FF0000;strokeColor=#0000FF;strokeWidth=3;fillColor=none;align=center;" parent="iwYp3wEYwxm7NngFVobn-1" vertex="1">
                    <mxGeometry x="697" y="329" width="130" height="30" as="geometry"/>
                </mxCell>
                <mxCell id="A237o_bNto-YE-V8PmqF-22" value="K-MEANS算法" style="rounded=1;whiteSpace=wrap;html=1;fontSize=11;fontColor=#FF0000;strokeColor=#0000FF;strokeWidth=3;fillColor=none;align=center;" parent="iwYp3wEYwxm7NngFVobn-1" vertex="1">
                    <mxGeometry x="697" y="387" width="130" height="30" as="geometry"/>
                </mxCell>
                <mxCell id="A237o_bNto-YE-V8PmqF-23" value="KNN算法" style="rounded=1;whiteSpace=wrap;html=1;fontSize=11;fontColor=#FF0000;strokeColor=#0000FF;strokeWidth=3;fillColor=none;align=center;" parent="iwYp3wEYwxm7NngFVobn-1" vertex="1">
                    <mxGeometry x="697" y="427" width="130" height="30" as="geometry"/>
                </mxCell>
                <mxCell id="A237o_bNto-YE-V8PmqF-24" value="K-MEDOIDS算法" style="rounded=1;whiteSpace=wrap;html=1;fontSize=11;fontColor=#FF0000;strokeColor=#0000FF;strokeWidth=3;fillColor=none;align=center;" parent="iwYp3wEYwxm7NngFVobn-1" vertex="1">
                    <mxGeometry x="697" y="470" width="130" height="30" as="geometry"/>
                </mxCell>
                <mxCell id="A237o_bNto-YE-V8PmqF-25" value="K-MEANS算法" style="rounded=1;whiteSpace=wrap;html=1;fontSize=11;fontColor=#FF0000;strokeColor=#0000FF;strokeWidth=3;fillColor=none;align=center;" parent="iwYp3wEYwxm7NngFVobn-1" vertex="1">
                    <mxGeometry x="697" y="530" width="130" height="30" as="geometry"/>
                </mxCell>
                <mxCell id="A237o_bNto-YE-V8PmqF-26" value="KNN算法" style="rounded=1;whiteSpace=wrap;html=1;fontSize=11;fontColor=#FF0000;strokeColor=#0000FF;strokeWidth=3;fillColor=none;align=center;" parent="iwYp3wEYwxm7NngFVobn-1" vertex="1">
                    <mxGeometry x="697" y="570" width="130" height="30" as="geometry"/>
                </mxCell>
                <mxCell id="A237o_bNto-YE-V8PmqF-27" value="K-MEDOIDS算法" style="rounded=1;whiteSpace=wrap;html=1;fontSize=11;fontColor=#FF0000;strokeColor=#0000FF;strokeWidth=3;fillColor=none;align=center;" parent="iwYp3wEYwxm7NngFVobn-1" vertex="1">
                    <mxGeometry x="697" y="613" width="130" height="30" as="geometry"/>
                </mxCell>
                <mxCell id="A237o_bNto-YE-V8PmqF-28" value="" style="edgeStyle=entityRelationEdgeStyle;fontSize=12;html=1;endArrow=ERmandOne;fontColor=#FF0000;strokeColor=#0000FF;fillColor=#33FF33;exitX=1;exitY=0.5;exitDx=0;exitDy=0;entryX=0;entryY=0.5;entryDx=0;entryDy=0;" parent="iwYp3wEYwxm7NngFVobn-1" source="A237o_bNto-YE-V8PmqF-6" target="A237o_bNto-YE-V8PmqF-14" edge="1">
                    <mxGeometry width="100" height="100" relative="1" as="geometry">
                        <mxPoint x="467" y="587" as="sourcePoint"/>
                        <mxPoint x="527" y="488" as="targetPoint"/>
                    </mxGeometry>
                </mxCell>
                <mxCell id="A237o_bNto-YE-V8PmqF-29" value="" style="edgeStyle=entityRelationEdgeStyle;fontSize=12;html=1;endArrow=ERmandOne;fontColor=#FF0000;strokeColor=#0000FF;fillColor=#33FF33;exitX=1;exitY=0.5;exitDx=0;exitDy=0;entryX=0;entryY=0.5;entryDx=0;entryDy=0;" parent="iwYp3wEYwxm7NngFVobn-1" source="iwYp3wEYwxm7NngFVobn-30" target="A237o_bNto-YE-V8PmqF-16" edge="1">
                    <mxGeometry width="100" height="100" relative="1" as="geometry">
                        <mxPoint x="637" y="140" as="sourcePoint"/>
                        <mxPoint x="697" y="104" as="targetPoint"/>
                    </mxGeometry>
                </mxCell>
                <mxCell id="A237o_bNto-YE-V8PmqF-38" value="" style="edgeStyle=entityRelationEdgeStyle;fontSize=12;html=1;endArrow=ERmandOne;fontColor=#FF0000;strokeColor=#0000FF;fillColor=#33FF33;exitX=1;exitY=0.5;exitDx=0;exitDy=0;entryX=0;entryY=0.5;entryDx=0;entryDy=0;" parent="iwYp3wEYwxm7NngFVobn-1" source="iwYp3wEYwxm7NngFVobn-30" target="A237o_bNto-YE-V8PmqF-17" edge="1">
                    <mxGeometry width="100" height="100" relative="1" as="geometry">
                        <mxPoint x="637" y="214" as="sourcePoint"/>
                        <mxPoint x="697" y="174" as="targetPoint"/>
                    </mxGeometry>
                </mxCell>
                <mxCell id="A237o_bNto-YE-V8PmqF-39" value="" style="edgeStyle=entityRelationEdgeStyle;fontSize=12;html=1;endArrow=ERmandOne;fontColor=#FF0000;strokeColor=#0000FF;fillColor=#33FF33;exitX=1;exitY=0.5;exitDx=0;exitDy=0;entryX=0;entryY=0.5;entryDx=0;entryDy=0;" parent="iwYp3wEYwxm7NngFVobn-1" source="A237o_bNto-YE-V8PmqF-15" target="A237o_bNto-YE-V8PmqF-22" edge="1">
                    <mxGeometry width="100" height="100" relative="1" as="geometry">
                        <mxPoint x="637" y="458" as="sourcePoint"/>
                        <mxPoint x="697" y="418" as="targetPoint"/>
                    </mxGeometry>
                </mxCell>
                <mxCell id="A237o_bNto-YE-V8PmqF-40" value="" style="edgeStyle=entityRelationEdgeStyle;fontSize=12;html=1;endArrow=ERmandOne;fontColor=#FF0000;strokeColor=#0000FF;fillColor=#33FF33;exitX=1;exitY=0.5;exitDx=0;exitDy=0;entryX=0;entryY=0.5;entryDx=0;entryDy=0;" parent="iwYp3wEYwxm7NngFVobn-1" source="A237o_bNto-YE-V8PmqF-14" target="A237o_bNto-YE-V8PmqF-27" edge="1">
                    <mxGeometry width="100" height="100" relative="1" as="geometry">
                        <mxPoint x="627" y="628" as="sourcePoint"/>
                        <mxPoint x="687" y="588" as="targetPoint"/>
                    </mxGeometry>
                </mxCell>
                <mxCell id="A237o_bNto-YE-V8PmqF-41" value="" style="edgeStyle=entityRelationEdgeStyle;fontSize=12;html=1;endArrow=ERmandOne;fontColor=#FF0000;strokeColor=#0000FF;fillColor=#33FF33;exitX=1;exitY=0.5;exitDx=0;exitDy=0;entryX=0;entryY=0.5;entryDx=0;entryDy=0;" parent="iwYp3wEYwxm7NngFVobn-1" source="A237o_bNto-YE-V8PmqF-15" target="A237o_bNto-YE-V8PmqF-24" edge="1">
                    <mxGeometry width="100" height="100" relative="1" as="geometry">
                        <mxPoint x="637" y="500" as="sourcePoint"/>
                        <mxPoint x="697" y="460" as="targetPoint"/>
                    </mxGeometry>
                </mxCell>
                <mxCell id="A237o_bNto-YE-V8PmqF-42" value="" style="edgeStyle=entityRelationEdgeStyle;fontSize=12;html=1;endArrow=ERmandOne;fontColor=#FF0000;strokeColor=#0000FF;fillColor=#33FF33;exitX=1;exitY=0.5;exitDx=0;exitDy=0;entryX=0;entryY=0.5;entryDx=0;entryDy=0;" parent="iwYp3wEYwxm7NngFVobn-1" source="A237o_bNto-YE-V8PmqF-15" target="A237o_bNto-YE-V8PmqF-23" edge="1">
                    <mxGeometry width="100" height="100" relative="1" as="geometry">
                        <mxPoint x="637" y="497" as="sourcePoint"/>
                        <mxPoint x="697" y="457" as="targetPoint"/>
                    </mxGeometry>
                </mxCell>
                <mxCell id="A237o_bNto-YE-V8PmqF-43" value="" style="edgeStyle=entityRelationEdgeStyle;fontSize=12;html=1;endArrow=ERmandOne;fontColor=#FF0000;strokeColor=#0000FF;fillColor=#33FF33;exitX=1;exitY=0.5;exitDx=0;exitDy=0;entryX=0;entryY=0.5;entryDx=0;entryDy=0;" parent="iwYp3wEYwxm7NngFVobn-1" source="A237o_bNto-YE-V8PmqF-7" target="A237o_bNto-YE-V8PmqF-21" edge="1">
                    <mxGeometry width="100" height="100" relative="1" as="geometry">
                        <mxPoint x="637" y="364" as="sourcePoint"/>
                        <mxPoint x="697" y="324" as="targetPoint"/>
                    </mxGeometry>
                </mxCell>
                <mxCell id="A237o_bNto-YE-V8PmqF-44" value="" style="edgeStyle=entityRelationEdgeStyle;fontSize=12;html=1;endArrow=ERmandOne;fontColor=#FF0000;strokeColor=#0000FF;fillColor=#33FF33;exitX=1;exitY=0.5;exitDx=0;exitDy=0;entryX=0;entryY=0.5;entryDx=0;entryDy=0;" parent="iwYp3wEYwxm7NngFVobn-1" source="A237o_bNto-YE-V8PmqF-7" target="A237o_bNto-YE-V8PmqF-20" edge="1">
                    <mxGeometry width="100" height="100" relative="1" as="geometry">
                        <mxPoint x="647" y="360" as="sourcePoint"/>
                        <mxPoint x="707" y="320" as="targetPoint"/>
                    </mxGeometry>
                </mxCell>
                <mxCell id="A237o_bNto-YE-V8PmqF-45" value="" style="edgeStyle=entityRelationEdgeStyle;fontSize=12;html=1;endArrow=ERmandOne;fontColor=#FF0000;strokeColor=#0000FF;fillColor=#33FF33;exitX=1;exitY=0.5;exitDx=0;exitDy=0;entryX=0;entryY=0.5;entryDx=0;entryDy=0;" parent="iwYp3wEYwxm7NngFVobn-1" source="A237o_bNto-YE-V8PmqF-7" target="A237o_bNto-YE-V8PmqF-19" edge="1">
                    <mxGeometry width="100" height="100" relative="1" as="geometry">
                        <mxPoint x="637" y="276" as="sourcePoint"/>
                        <mxPoint x="697" y="236" as="targetPoint"/>
                    </mxGeometry>
                </mxCell>
                <mxCell id="A237o_bNto-YE-V8PmqF-46" value="" style="edgeStyle=entityRelationEdgeStyle;fontSize=12;html=1;endArrow=ERmandOne;fontColor=#FF0000;strokeColor=#0000FF;fillColor=#33FF33;exitX=1;exitY=0.5;exitDx=0;exitDy=0;entryX=0;entryY=0.5;entryDx=0;entryDy=0;" parent="iwYp3wEYwxm7NngFVobn-1" source="iwYp3wEYwxm7NngFVobn-30" target="A237o_bNto-YE-V8PmqF-18" edge="1">
                    <mxGeometry width="100" height="100" relative="1" as="geometry">
                        <mxPoint x="637" y="233" as="sourcePoint"/>
                        <mxPoint x="697" y="193" as="targetPoint"/>
                    </mxGeometry>
                </mxCell>
                <mxCell id="A237o_bNto-YE-V8PmqF-47" value="" style="edgeStyle=entityRelationEdgeStyle;fontSize=12;html=1;endArrow=ERmandOne;fontColor=#FF0000;strokeColor=#0000FF;fillColor=#33FF33;exitX=1;exitY=0.5;exitDx=0;exitDy=0;entryX=0;entryY=0.5;entryDx=0;entryDy=0;" parent="iwYp3wEYwxm7NngFVobn-1" source="A237o_bNto-YE-V8PmqF-14" target="A237o_bNto-YE-V8PmqF-26" edge="1">
                    <mxGeometry width="100" height="100" relative="1" as="geometry">
                        <mxPoint x="637" y="628" as="sourcePoint"/>
                        <mxPoint x="697" y="588" as="targetPoint"/>
                    </mxGeometry>
                </mxCell>
                <mxCell id="A237o_bNto-YE-V8PmqF-48" value="" style="edgeStyle=entityRelationEdgeStyle;fontSize=12;html=1;endArrow=ERmandOne;fontColor=#FF0000;strokeColor=#0000FF;fillColor=#33FF33;exitX=1;exitY=0.5;exitDx=0;exitDy=0;entryX=0;entryY=0.5;entryDx=0;entryDy=0;" parent="iwYp3wEYwxm7NngFVobn-1" source="A237o_bNto-YE-V8PmqF-14" target="A237o_bNto-YE-V8PmqF-25" edge="1">
                    <mxGeometry width="100" height="100" relative="1" as="geometry">
                        <mxPoint x="637" y="558" as="sourcePoint"/>
                        <mxPoint x="697" y="518" as="targetPoint"/>
                    </mxGeometry>
                </mxCell>
                <mxCell id="A237o_bNto-YE-V8PmqF-49" value="基于AABB算法" style="rounded=1;whiteSpace=wrap;html=1;fontSize=12;fontColor=#FF0000;strokeColor=#0000FF;strokeWidth=3;fillColor=none;" parent="iwYp3wEYwxm7NngFVobn-1" vertex="1">
                    <mxGeometry x="210" y="630" width="140" height="30" as="geometry"/>
                </mxCell>
                <mxCell id="A237o_bNto-YE-V8PmqF-50" value="包围球(sphere)" style="rounded=1;whiteSpace=wrap;html=1;fontSize=12;fontColor=#FF0000;strokeColor=#0000FF;strokeWidth=3;fillColor=none;" parent="iwYp3wEYwxm7NngFVobn-1" vertex="1">
                    <mxGeometry x="210" y="905" width="120" height="30" as="geometry"/>
                </mxCell>
                <mxCell id="A237o_bNto-YE-V8PmqF-51" value="凸包包围框(fixed direction hulls or K-DOP)" style="rounded=1;whiteSpace=wrap;html=1;fontSize=12;fontColor=#FF0000;strokeColor=#0000FF;strokeWidth=3;fillColor=none;" parent="iwYp3wEYwxm7NngFVobn-1" vertex="1">
                    <mxGeometry x="210" y="825" width="150" height="40" as="geometry"/>
                </mxCell>
                <mxCell id="A237o_bNto-YE-V8PmqF-52" value="最小面积框算法" style="rounded=1;whiteSpace=wrap;html=1;fontSize=12;fontColor=#FF0000;strokeColor=#0000FF;strokeWidth=3;fillColor=none;" parent="iwYp3wEYwxm7NngFVobn-1" vertex="1">
                    <mxGeometry x="210" y="755" width="140" height="30" as="geometry"/>
                </mxCell>
                <mxCell id="A237o_bNto-YE-V8PmqF-53" value="基于OBB算法" style="rounded=1;whiteSpace=wrap;html=1;fontSize=12;fontColor=#FF0000;strokeColor=#0000FF;strokeWidth=3;fillColor=none;" parent="iwYp3wEYwxm7NngFVobn-1" vertex="1">
                    <mxGeometry x="210" y="693" width="140" height="30" as="geometry"/>
                </mxCell>
                <mxCell id="A237o_bNto-YE-V8PmqF-55" value="" style="edgeStyle=entityRelationEdgeStyle;fontSize=12;html=1;endArrow=ERmandOne;fontColor=#FF0000;strokeColor=#0000FF;fillColor=#33FF33;exitX=1;exitY=0.5;exitDx=0;exitDy=0;entryX=0;entryY=0.5;entryDx=0;entryDy=0;" parent="iwYp3wEYwxm7NngFVobn-1" source="A237o_bNto-YE-V8PmqF-10" target="A237o_bNto-YE-V8PmqF-49" edge="1">
                    <mxGeometry width="100" height="100" relative="1" as="geometry">
                        <mxPoint x="150" y="705" as="sourcePoint"/>
                        <mxPoint x="210" y="665" as="targetPoint"/>
                    </mxGeometry>
                </mxCell>
                <mxCell id="A237o_bNto-YE-V8PmqF-57" value="" style="edgeStyle=entityRelationEdgeStyle;fontSize=12;html=1;endArrow=ERmandOne;fontColor=#FF0000;strokeColor=#0000FF;fillColor=#33FF33;exitX=1;exitY=0.5;exitDx=0;exitDy=0;entryX=0;entryY=0.5;entryDx=0;entryDy=0;" parent="iwYp3wEYwxm7NngFVobn-1" source="A237o_bNto-YE-V8PmqF-10" target="A237o_bNto-YE-V8PmqF-50" edge="1">
                    <mxGeometry width="100" height="100" relative="1" as="geometry">
                        <mxPoint x="150" y="915" as="sourcePoint"/>
                        <mxPoint x="210" y="875" as="targetPoint"/>
                    </mxGeometry>
                </mxCell>
                <mxCell id="A237o_bNto-YE-V8PmqF-58" value="" style="edgeStyle=entityRelationEdgeStyle;fontSize=12;html=1;endArrow=ERmandOne;fontColor=#FF0000;strokeColor=#0000FF;fillColor=#33FF33;exitX=1;exitY=0.5;exitDx=0;exitDy=0;entryX=0;entryY=0.5;entryDx=0;entryDy=0;" parent="iwYp3wEYwxm7NngFVobn-1" source="A237o_bNto-YE-V8PmqF-10" target="A237o_bNto-YE-V8PmqF-51" edge="1">
                    <mxGeometry width="100" height="100" relative="1" as="geometry">
                        <mxPoint x="150" y="855" as="sourcePoint"/>
                        <mxPoint x="210" y="815" as="targetPoint"/>
                    </mxGeometry>
                </mxCell>
                <mxCell id="A237o_bNto-YE-V8PmqF-59" value="" style="edgeStyle=entityRelationEdgeStyle;fontSize=12;html=1;endArrow=ERmandOne;fontColor=#FF0000;strokeColor=#0000FF;fillColor=#33FF33;exitX=1;exitY=0.5;exitDx=0;exitDy=0;entryX=0;entryY=0.5;entryDx=0;entryDy=0;" parent="iwYp3wEYwxm7NngFVobn-1" source="A237o_bNto-YE-V8PmqF-10" target="A237o_bNto-YE-V8PmqF-52" edge="1">
                    <mxGeometry width="100" height="100" relative="1" as="geometry">
                        <mxPoint x="150" y="835" as="sourcePoint"/>
                        <mxPoint x="210" y="795" as="targetPoint"/>
                    </mxGeometry>
                </mxCell>
                <mxCell id="A237o_bNto-YE-V8PmqF-60" value="" style="edgeStyle=entityRelationEdgeStyle;fontSize=12;html=1;endArrow=ERmandOne;fontColor=#FF0000;strokeColor=#0000FF;fillColor=#33FF33;exitX=1;exitY=0.5;exitDx=0;exitDy=0;entryX=0;entryY=0.5;entryDx=0;entryDy=0;" parent="iwYp3wEYwxm7NngFVobn-1" source="A237o_bNto-YE-V8PmqF-10" target="A237o_bNto-YE-V8PmqF-53" edge="1">
                    <mxGeometry width="100" height="100" relative="1" as="geometry">
                        <mxPoint x="150" y="825" as="sourcePoint"/>
                        <mxPoint x="210" y="785" as="targetPoint"/>
                    </mxGeometry>
                </mxCell>
                <mxCell id="PDhbbWhO_wIaAfjbuCkR-0" value="激光点云检测障碍物的步骤" style="text;html=1;strokeColor=none;fillColor=none;align=left;verticalAlign=middle;whiteSpace=wrap;rounded=0;fontSize=22;fontColor=#FF0000;fontStyle=1" parent="iwYp3wEYwxm7NngFVobn-1" vertex="1">
                    <mxGeometry x="20" y="30" width="310" height="30" as="geometry"/>
                </mxCell>
            </root>
        </mxGraphModel>
    </diagram>
    <diagram id="q6QXK8IRdtgzlft5MY7H" name="相机传感器1">
        <mxGraphModel dx="1562" dy="1160" grid="1" gridSize="10" guides="1" tooltips="1" connect="1" arrows="1" fold="1" page="1" pageScale="1" pageWidth="850" pageHeight="1100" background="#ffffff" math="0" shadow="0">
            <root>
                <mxCell id="LafS-st1ClGZHATqQYFv-0"/>
                <mxCell id="LafS-st1ClGZHATqQYFv-1" parent="LafS-st1ClGZHATqQYFv-0"/>
                <mxCell id="8cxiB5Qc7X9QkN6qJW3u-0" value="单目摄像头" style="swimlane;fontSize=17;fontColor=#FF0000;strokeColor=#0000FF;strokeWidth=3;fillColor=none;" parent="LafS-st1ClGZHATqQYFv-1" vertex="1">
                    <mxGeometry x="30" y="50" width="237.5" height="100" as="geometry"/>
                </mxCell>
                <mxCell id="8cxiB5Qc7X9QkN6qJW3u-1" value="* 分类：广角，长焦，鱼眼；&lt;br&gt;* 用于识别红绿灯，车道线，障碍物；" style="text;html=1;align=left;verticalAlign=middle;resizable=0;points=[];autosize=1;strokeColor=none;fillColor=none;fontSize=13;fontColor=#FF0000;" parent="8cxiB5Qc7X9QkN6qJW3u-0" vertex="1">
                    <mxGeometry x="3.75" y="30" width="230" height="40" as="geometry"/>
                </mxCell>
                <mxCell id="8cxiB5Qc7X9QkN6qJW3u-2" value="工作步骤" style="swimlane;fontSize=17;fontColor=#FF0000;strokeColor=#0000FF;strokeWidth=3;fillColor=none;" parent="LafS-st1ClGZHATqQYFv-1" vertex="1">
                    <mxGeometry x="335" y="50" width="215" height="130" as="geometry"/>
                </mxCell>
                <mxCell id="8cxiB5Qc7X9QkN6qJW3u-3" value="* 激光雷达发射激光&lt;br style=&quot;font-size: 13px&quot;&gt;* 障碍物反射激光&lt;br style=&quot;font-size: 13px&quot;&gt;* 激光雷达接收反射&lt;br style=&quot;font-size: 13px&quot;&gt;* 生成三维点云数据(XYZ,&lt;br&gt;RGB,Time,Intensity,Velocity)" style="text;html=1;align=left;verticalAlign=middle;resizable=0;points=[];autosize=1;strokeColor=none;fillColor=none;fontSize=13;fontColor=#FF0000;" parent="8cxiB5Qc7X9QkN6qJW3u-2" vertex="1">
                    <mxGeometry x="7.5" y="30" width="180" height="90" as="geometry"/>
                </mxCell>
                <mxCell id="8cxiB5Qc7X9QkN6qJW3u-4" value="双目摄像头" style="swimlane;fontSize=17;fontColor=#FF0000;strokeColor=#0000FF;strokeWidth=3;fillColor=none;" parent="LafS-st1ClGZHATqQYFv-1" vertex="1">
                    <mxGeometry x="30" y="200" width="237.5" height="130" as="geometry"/>
                </mxCell>
                <mxCell id="8cxiB5Qc7X9QkN6qJW3u-5" value="* 包含单目摄像头全部功能；&lt;br&gt;* 定位测距：通过视差的三角测距原理&lt;br&gt;进行测距。&lt;br&gt;* 可还原视觉场景中每一点的真实三维&lt;br&gt;几何信息。" style="text;html=1;align=left;verticalAlign=middle;resizable=0;points=[];autosize=1;strokeColor=none;fillColor=none;fontSize=13;fontColor=#FF0000;" parent="8cxiB5Qc7X9QkN6qJW3u-4" vertex="1">
                    <mxGeometry x="7.5" y="31" width="230" height="90" as="geometry"/>
                </mxCell>
                <mxCell id="p9U-sdWg3t27TANVpZVU-0" value="动态目标检测：涉及图像处理技术" style="swimlane;fontSize=17;fontColor=#FF0000;strokeColor=#0000FF;strokeWidth=3;fillColor=none;" parent="LafS-st1ClGZHATqQYFv-1" vertex="1">
                    <mxGeometry x="335" y="200" width="357.5" height="170" as="geometry"/>
                </mxCell>
                <mxCell id="p9U-sdWg3t27TANVpZVU-1" value="* 难点：&lt;br&gt;小目标：相对输入图片大小，目标物体所占像素点极少；&lt;br&gt;旋转角度学习，物体朝向不同，但对应特征相同，旋转角的&lt;br&gt;有效学习有较大难度；&lt;br&gt;缺失深度信息。&lt;br&gt;多目标追踪、ID切换。&lt;br&gt;* 传统图像特征提取主要技术：&lt;br&gt;HOG,SIFT,SURF,ORB,DPM,金字塔分解" style="text;html=1;align=left;verticalAlign=middle;resizable=0;points=[];autosize=1;strokeColor=none;fillColor=none;fontSize=13;fontColor=#FF0000;" parent="p9U-sdWg3t27TANVpZVU-0" vertex="1">
                    <mxGeometry x="7.5" y="30" width="350" height="130" as="geometry"/>
                </mxCell>
                <mxCell id="p9U-sdWg3t27TANVpZVU-4" value="&lt;font color=&quot;#ff0000&quot; size=&quot;1&quot;&gt;&lt;b style=&quot;font-size: 16px&quot;&gt;视觉目标检测：传统算法通用处理流程&lt;/b&gt;&lt;/font&gt;" style="text;html=1;strokeColor=none;fillColor=none;align=left;verticalAlign=middle;whiteSpace=wrap;rounded=0;" parent="LafS-st1ClGZHATqQYFv-1" vertex="1">
                    <mxGeometry x="30" y="410" width="320" height="30" as="geometry"/>
                </mxCell>
                <mxCell id="p9U-sdWg3t27TANVpZVU-5" value="输入" style="rounded=1;whiteSpace=wrap;html=1;fontSize=14;fontColor=#F0F0F0;fillColor=#3333FF;strokeColor=#2B45F0;fontStyle=0" parent="LafS-st1ClGZHATqQYFv-1" vertex="1">
                    <mxGeometry x="108.5" y="470" width="86" height="30" as="geometry"/>
                </mxCell>
                <mxCell id="p9U-sdWg3t27TANVpZVU-7" value="预处理" style="rounded=1;whiteSpace=wrap;html=1;fontSize=14;fontColor=#F0F0F0;fillColor=#3333FF;strokeColor=#2B45F0;fontStyle=0" parent="LafS-st1ClGZHATqQYFv-1" vertex="1">
                    <mxGeometry x="244.5" y="470" width="86" height="30" as="geometry"/>
                </mxCell>
                <mxCell id="p9U-sdWg3t27TANVpZVU-9" value="识别" style="rounded=1;whiteSpace=wrap;html=1;fontSize=14;fontColor=#F0F0F0;fillColor=#3333FF;strokeColor=#2B45F0;fontStyle=0" parent="LafS-st1ClGZHATqQYFv-1" vertex="1">
                    <mxGeometry x="644" y="570" width="86" height="30" as="geometry"/>
                </mxCell>
                <mxCell id="p9U-sdWg3t27TANVpZVU-10" value="匹配" style="rounded=1;whiteSpace=wrap;html=1;fontSize=14;fontColor=#F0F0F0;fillColor=#3333FF;strokeColor=#2B45F0;fontStyle=0" parent="LafS-st1ClGZHATqQYFv-1" vertex="1">
                    <mxGeometry x="541.5" y="570" width="86" height="30" as="geometry"/>
                </mxCell>
                <mxCell id="p9U-sdWg3t27TANVpZVU-11" value="分类" style="rounded=1;whiteSpace=wrap;html=1;fontSize=14;fontColor=#F0F0F0;fillColor=#3333FF;strokeColor=#2B45F0;fontStyle=0" parent="LafS-st1ClGZHATqQYFv-1" vertex="1">
                    <mxGeometry x="440.5" y="570" width="86" height="30" as="geometry"/>
                </mxCell>
                <mxCell id="p9U-sdWg3t27TANVpZVU-12" value="输出" style="rounded=1;whiteSpace=wrap;html=1;fontSize=14;fontColor=#F0F0F0;fillColor=#3333FF;strokeColor=#2B45F0;fontStyle=0" parent="LafS-st1ClGZHATqQYFv-1" vertex="1">
                    <mxGeometry x="694.5" y="470" width="86" height="30" as="geometry"/>
                </mxCell>
                <mxCell id="p9U-sdWg3t27TANVpZVU-16" style="edgeStyle=none;html=1;exitX=0.5;exitY=1;exitDx=0;exitDy=0;entryX=0.5;entryY=0;entryDx=0;entryDy=0;fontSize=14;fontColor=#F0F0F0;strokeColor=#522900;" parent="LafS-st1ClGZHATqQYFv-1" source="p9U-sdWg3t27TANVpZVU-13" target="p9U-sdWg3t27TANVpZVU-11" edge="1">
                    <mxGeometry relative="1" as="geometry"/>
                </mxCell>
                <mxCell id="p9U-sdWg3t27TANVpZVU-13" value="算法" style="rounded=1;whiteSpace=wrap;html=1;fontSize=14;fontColor=#F0F0F0;fillColor=#3333FF;strokeColor=#2B45F0;fontStyle=0" parent="LafS-st1ClGZHATqQYFv-1" vertex="1">
                    <mxGeometry x="534.5" y="470" width="86" height="30" as="geometry"/>
                </mxCell>
                <mxCell id="p9U-sdWg3t27TANVpZVU-14" value="特征提取" style="rounded=1;whiteSpace=wrap;html=1;fontSize=14;fontColor=#F0F0F0;fillColor=#3333FF;strokeColor=#2B45F0;fontStyle=0" parent="LafS-st1ClGZHATqQYFv-1" vertex="1">
                    <mxGeometry x="394.5" y="470" width="86" height="30" as="geometry"/>
                </mxCell>
                <mxCell id="p9U-sdWg3t27TANVpZVU-17" style="edgeStyle=none;html=1;exitX=0.5;exitY=1;exitDx=0;exitDy=0;entryX=0.5;entryY=0;entryDx=0;entryDy=0;fontSize=14;fontColor=#F0F0F0;strokeColor=#522900;" parent="LafS-st1ClGZHATqQYFv-1" source="p9U-sdWg3t27TANVpZVU-13" target="p9U-sdWg3t27TANVpZVU-10" edge="1">
                    <mxGeometry relative="1" as="geometry">
                        <mxPoint x="587.5" y="510" as="sourcePoint"/>
                        <mxPoint x="447.5" y="580" as="targetPoint"/>
                    </mxGeometry>
                </mxCell>
                <mxCell id="p9U-sdWg3t27TANVpZVU-18" style="edgeStyle=none;html=1;exitX=0.5;exitY=1;exitDx=0;exitDy=0;entryX=0.5;entryY=0;entryDx=0;entryDy=0;fontSize=14;fontColor=#F0F0F0;strokeColor=#522900;" parent="LafS-st1ClGZHATqQYFv-1" source="p9U-sdWg3t27TANVpZVU-13" target="p9U-sdWg3t27TANVpZVU-9" edge="1">
                    <mxGeometry relative="1" as="geometry">
                        <mxPoint x="597.5" y="520" as="sourcePoint"/>
                        <mxPoint x="457.5" y="590" as="targetPoint"/>
                    </mxGeometry>
                </mxCell>
                <mxCell id="p9U-sdWg3t27TANVpZVU-19" style="edgeStyle=none;html=1;exitX=1;exitY=0.5;exitDx=0;exitDy=0;entryX=0;entryY=0.5;entryDx=0;entryDy=0;fontSize=14;fontColor=#F0F0F0;strokeColor=#522900;strokeWidth=4;" parent="LafS-st1ClGZHATqQYFv-1" source="p9U-sdWg3t27TANVpZVU-5" target="p9U-sdWg3t27TANVpZVU-7" edge="1">
                    <mxGeometry relative="1" as="geometry">
                        <mxPoint x="284.5" y="520" as="sourcePoint"/>
                        <mxPoint x="144.5" y="590" as="targetPoint"/>
                    </mxGeometry>
                </mxCell>
                <mxCell id="p9U-sdWg3t27TANVpZVU-20" style="edgeStyle=none;html=1;exitX=1;exitY=0.5;exitDx=0;exitDy=0;entryX=0;entryY=0.5;entryDx=0;entryDy=0;fontSize=14;fontColor=#F0F0F0;strokeColor=#522900;strokeWidth=4;" parent="LafS-st1ClGZHATqQYFv-1" source="p9U-sdWg3t27TANVpZVU-13" target="p9U-sdWg3t27TANVpZVU-12" edge="1">
                    <mxGeometry relative="1" as="geometry">
                        <mxPoint x="631" y="499" as="sourcePoint"/>
                        <mxPoint x="681" y="499" as="targetPoint"/>
                    </mxGeometry>
                </mxCell>
                <mxCell id="p9U-sdWg3t27TANVpZVU-21" style="edgeStyle=none;html=1;exitX=1;exitY=0.5;exitDx=0;exitDy=0;entryX=0;entryY=0.5;entryDx=0;entryDy=0;fontSize=14;fontColor=#F0F0F0;strokeColor=#522900;strokeWidth=4;" parent="LafS-st1ClGZHATqQYFv-1" source="p9U-sdWg3t27TANVpZVU-14" target="p9U-sdWg3t27TANVpZVU-13" edge="1">
                    <mxGeometry relative="1" as="geometry">
                        <mxPoint x="484.5" y="500" as="sourcePoint"/>
                        <mxPoint x="534.5" y="500" as="targetPoint"/>
                    </mxGeometry>
                </mxCell>
                <mxCell id="p9U-sdWg3t27TANVpZVU-22" style="edgeStyle=none;html=1;exitX=1;exitY=0.5;exitDx=0;exitDy=0;fontSize=14;fontColor=#F0F0F0;strokeColor=#522900;strokeWidth=4;" parent="LafS-st1ClGZHATqQYFv-1" source="p9U-sdWg3t27TANVpZVU-7" edge="1">
                    <mxGeometry relative="1" as="geometry">
                        <mxPoint x="342" y="484.5" as="sourcePoint"/>
                        <mxPoint x="394.5" y="485" as="targetPoint"/>
                    </mxGeometry>
                </mxCell>
                <mxCell id="p9U-sdWg3t27TANVpZVU-23" value="对比度均衡" style="rounded=1;whiteSpace=wrap;html=1;fontSize=14;fontColor=#F0F0F0;fillColor=#3333FF;strokeColor=#2B45F0;fontStyle=0" parent="LafS-st1ClGZHATqQYFv-1" vertex="1">
                    <mxGeometry x="240" y="570" width="86" height="30" as="geometry"/>
                </mxCell>
                <mxCell id="p9U-sdWg3t27TANVpZVU-24" value="白平衡" style="rounded=1;whiteSpace=wrap;html=1;fontSize=14;fontColor=#F0F0F0;fillColor=#3333FF;strokeColor=#2B45F0;fontStyle=0" parent="LafS-st1ClGZHATqQYFv-1" vertex="1">
                    <mxGeometry x="160" y="570" width="66" height="30" as="geometry"/>
                </mxCell>
                <mxCell id="p9U-sdWg3t27TANVpZVU-25" value="成帧" style="rounded=1;whiteSpace=wrap;html=1;fontSize=14;fontColor=#F0F0F0;fillColor=#3333FF;strokeColor=#2B45F0;fontStyle=0" parent="LafS-st1ClGZHATqQYFv-1" vertex="1">
                    <mxGeometry x="78" y="570" width="62" height="30" as="geometry"/>
                </mxCell>
                <mxCell id="p9U-sdWg3t27TANVpZVU-26" value="图像扭正" style="rounded=1;whiteSpace=wrap;html=1;fontSize=14;fontColor=#F0F0F0;fillColor=#3333FF;strokeColor=#2B45F0;fontStyle=0" parent="LafS-st1ClGZHATqQYFv-1" vertex="1">
                    <mxGeometry x="336" y="570" width="71.5" height="30" as="geometry"/>
                </mxCell>
                <mxCell id="p9U-sdWg3t27TANVpZVU-27" style="edgeStyle=none;html=1;exitX=0.5;exitY=1;exitDx=0;exitDy=0;entryX=0.5;entryY=0;entryDx=0;entryDy=0;fontSize=14;fontColor=#F0F0F0;strokeColor=#522900;" parent="LafS-st1ClGZHATqQYFv-1" source="p9U-sdWg3t27TANVpZVU-7" target="p9U-sdWg3t27TANVpZVU-24" edge="1">
                    <mxGeometry relative="1" as="geometry">
                        <mxPoint x="249" y="620" as="sourcePoint"/>
                        <mxPoint x="150" y="690" as="targetPoint"/>
                    </mxGeometry>
                </mxCell>
                <mxCell id="p9U-sdWg3t27TANVpZVU-28" style="edgeStyle=none;html=1;exitX=0.5;exitY=1;exitDx=0;exitDy=0;entryX=0.5;entryY=0;entryDx=0;entryDy=0;fontSize=14;fontColor=#F0F0F0;strokeColor=#522900;" parent="LafS-st1ClGZHATqQYFv-1" source="p9U-sdWg3t27TANVpZVU-7" target="p9U-sdWg3t27TANVpZVU-26" edge="1">
                    <mxGeometry relative="1" as="geometry">
                        <mxPoint x="259" y="630" as="sourcePoint"/>
                        <mxPoint x="160" y="700" as="targetPoint"/>
                    </mxGeometry>
                </mxCell>
                <mxCell id="p9U-sdWg3t27TANVpZVU-29" style="edgeStyle=none;html=1;exitX=0.5;exitY=1;exitDx=0;exitDy=0;entryX=0.5;entryY=0;entryDx=0;entryDy=0;fontSize=14;fontColor=#F0F0F0;strokeColor=#522900;" parent="LafS-st1ClGZHATqQYFv-1" source="p9U-sdWg3t27TANVpZVU-7" target="p9U-sdWg3t27TANVpZVU-25" edge="1">
                    <mxGeometry relative="1" as="geometry">
                        <mxPoint x="244.5" y="510" as="sourcePoint"/>
                        <mxPoint x="145.5" y="580" as="targetPoint"/>
                    </mxGeometry>
                </mxCell>
                <mxCell id="p9U-sdWg3t27TANVpZVU-30" style="edgeStyle=none;html=1;exitX=0.5;exitY=1;exitDx=0;exitDy=0;entryX=0.5;entryY=0;entryDx=0;entryDy=0;fontSize=14;fontColor=#F0F0F0;strokeColor=#522900;" parent="LafS-st1ClGZHATqQYFv-1" source="p9U-sdWg3t27TANVpZVU-7" target="p9U-sdWg3t27TANVpZVU-23" edge="1">
                    <mxGeometry relative="1" as="geometry">
                        <mxPoint x="269" y="640" as="sourcePoint"/>
                        <mxPoint x="170" y="710" as="targetPoint"/>
                    </mxGeometry>
                </mxCell>
                <mxCell id="p9U-sdWg3t27TANVpZVU-31" value="&lt;font color=&quot;#ff0000&quot; size=&quot;1&quot;&gt;&lt;b style=&quot;font-size: 16px&quot;&gt;视觉目标检测：基于深度学习算法通用处理流程框架&lt;/b&gt;&lt;/font&gt;" style="text;html=1;strokeColor=none;fillColor=none;align=left;verticalAlign=middle;whiteSpace=wrap;rounded=0;" parent="LafS-st1ClGZHATqQYFv-1" vertex="1">
                    <mxGeometry x="30" y="643" width="380" height="30" as="geometry"/>
                </mxCell>
                <mxCell id="p9U-sdWg3t27TANVpZVU-32" value="Input" style="rounded=1;whiteSpace=wrap;html=1;fontSize=14;fontColor=#F0F0F0;fillColor=#3333FF;strokeColor=#2B45F0;fontStyle=0" parent="LafS-st1ClGZHATqQYFv-1" vertex="1">
                    <mxGeometry x="150" y="690" width="86" height="30" as="geometry"/>
                </mxCell>
                <mxCell id="p9U-sdWg3t27TANVpZVU-33" value="输入" style="rounded=1;whiteSpace=wrap;html=1;fontSize=14;fontColor=#F0F0F0;fillColor=#3333FF;strokeColor=#2B45F0;fontStyle=0" parent="LafS-st1ClGZHATqQYFv-1" vertex="1">
                    <mxGeometry x="750" y="740" width="86" height="30" as="geometry"/>
                </mxCell>
                <mxCell id="p9U-sdWg3t27TANVpZVU-34" value="Output" style="rounded=1;whiteSpace=wrap;html=1;fontSize=14;fontColor=#F0F0F0;fillColor=#3333FF;strokeColor=#2B45F0;fontStyle=0" parent="LafS-st1ClGZHATqQYFv-1" vertex="1">
                    <mxGeometry x="644" y="690" width="86" height="30" as="geometry"/>
                </mxCell>
                <mxCell id="p9U-sdWg3t27TANVpZVU-35" value="Deep Learning" style="rounded=1;whiteSpace=wrap;html=1;fontSize=14;fontColor=#F0F0F0;fillColor=#3333FF;strokeColor=#2B45F0;fontStyle=0" parent="LafS-st1ClGZHATqQYFv-1" vertex="1">
                    <mxGeometry x="380" y="690" width="120" height="30" as="geometry"/>
                </mxCell>
                <mxCell id="p9U-sdWg3t27TANVpZVU-36" style="edgeStyle=none;html=1;exitX=1;exitY=0.5;exitDx=0;exitDy=0;fontSize=14;fontColor=#F0F0F0;strokeColor=#522900;strokeWidth=4;entryX=0;entryY=0.5;entryDx=0;entryDy=0;" parent="LafS-st1ClGZHATqQYFv-1" source="p9U-sdWg3t27TANVpZVU-32" target="p9U-sdWg3t27TANVpZVU-35" edge="1">
                    <mxGeometry relative="1" as="geometry">
                        <mxPoint x="204.5" y="532" as="sourcePoint"/>
                        <mxPoint x="310" y="700" as="targetPoint"/>
                    </mxGeometry>
                </mxCell>
                <mxCell id="p9U-sdWg3t27TANVpZVU-37" style="edgeStyle=none;html=1;exitX=1;exitY=0.5;exitDx=0;exitDy=0;fontSize=14;fontColor=#F0F0F0;strokeColor=#522900;strokeWidth=4;entryX=0;entryY=0.5;entryDx=0;entryDy=0;" parent="LafS-st1ClGZHATqQYFv-1" source="p9U-sdWg3t27TANVpZVU-35" target="p9U-sdWg3t27TANVpZVU-34" edge="1">
                    <mxGeometry relative="1" as="geometry">
                        <mxPoint x="246" y="715" as="sourcePoint"/>
                        <mxPoint x="390" y="715" as="targetPoint"/>
                    </mxGeometry>
                </mxCell>
                <mxCell id="p9U-sdWg3t27TANVpZVU-38" value="&lt;font color=&quot;#000000&quot;&gt;· One step&lt;/font&gt;" style="text;html=1;strokeColor=none;fillColor=none;align=center;verticalAlign=middle;whiteSpace=wrap;rounded=0;fontSize=14;fontColor=#F0F0F0;" parent="LafS-st1ClGZHATqQYFv-1" vertex="1">
                    <mxGeometry x="30" y="771" width="91" height="30" as="geometry"/>
                </mxCell>
                <mxCell id="p9U-sdWg3t27TANVpZVU-39" value="&lt;font color=&quot;#000000&quot;&gt;· Two Step&lt;/font&gt;" style="text;html=1;strokeColor=none;fillColor=none;align=center;verticalAlign=middle;whiteSpace=wrap;rounded=0;fontSize=14;fontColor=#F0F0F0;" parent="LafS-st1ClGZHATqQYFv-1" vertex="1">
                    <mxGeometry x="30" y="854" width="91" height="30" as="geometry"/>
                </mxCell>
                <mxCell id="evMNQmBarv755_lLOEvH-0" value="&lt;font color=&quot;#ff0000&quot; size=&quot;1&quot;&gt;&lt;b style=&quot;font-size: 16px&quot;&gt;视觉目标检测：YOLOV5&lt;/b&gt;&lt;/font&gt;" style="text;html=1;strokeColor=none;fillColor=none;align=left;verticalAlign=middle;whiteSpace=wrap;rounded=0;" parent="LafS-st1ClGZHATqQYFv-1" vertex="1">
                    <mxGeometry x="30" y="960" width="220" height="30" as="geometry"/>
                </mxCell>
            </root>
        </mxGraphModel>
    </diagram>
    <diagram id="2STiSXvw4vXFPkT4BcuQ" name="传感器标定">
        <mxGraphModel dx="879" dy="653" grid="1" gridSize="10" guides="1" tooltips="1" connect="1" arrows="1" fold="1" page="1" pageScale="1" pageWidth="850" pageHeight="1100" background="#ffffff" math="0" shadow="0">
            <root>
                <mxCell id="YbDsHbstKSmNTuDa7cdl-0"/>
                <mxCell id="YbDsHbstKSmNTuDa7cdl-1" parent="YbDsHbstKSmNTuDa7cdl-0"/>
            </root>
        </mxGraphModel>
    </diagram>
</mxfile>